#!OML:ASF Y:\EmotionMaleHayes\Project 1\Capture day 1\Session 1\Male1.ASF
:FULLY-SPECIFIED
:DEGREES
439
root 40.853 16.3633 -1.43455 648.848 99.054 654.132
lowerback 4.38395 -0.518514 -12.9918
upperback 1.8637 -1.12427 -1.61925
thorax -0.274054 -0.582039 5.62965
lowerneck -22.8829 0.982997 0.651578
upperneck 26.3413 1.10399 0.980067
head 12.5562 0.786915 0.477476
rclavicle -6.19766e-015 3.57812e-015
rhumerus -53.8285 -9.20574 -75.94
rradius 24.9365
rwrist 8.37246
rhand -8.65378 -32.5077
rfingers 7.12502
rthumb 17.2797 -61.7595
lclavicle -6.19766e-015 3.57812e-015
lhumerus -20.7723 -10.4251 82.0554
lradius 54.9723
lwrist 6.99337
lhand -25.3705 -31.1081
lfingers 7.12502
lthumb 1.15369 -1.13148
rfemur -18.4807 -0.401598 9.85479
rtibia 19.9323
rfoot -2.28919 -4.01401
rtoes 23.7906
lfemur 21.3633 -0.103537 -29.9609
ltibia 27.7689
lfoot -17.5386 -1.26919
ltoes -19.3321
440
root 41.0257 16.3607 -1.41911 650.923 97.5808 656.72
lowerback 4.61069 -0.413071 -11.5575
upperback 1.98464 -0.966683 -1.10118
thorax -0.330206 -0.509568 5.37545
lowerneck -22.7359 1.00665 0.814354
upperneck 26.3128 1.19072 0.62428
head 12.5189 0.793049 0.327758
rclavicle -1.36569e-014 -4.73108e-014
rhumerus -53.0091 -9.02605 -76.072
rradius 25.1952
rwrist 9.18763
rhand -8.35544 -32.6897
rfingers 7.12502
rthumb 17.5668 -61.916
lclavicle -1.36569e-014 -4.73108e-014
lhumerus -21.7394 -9.74108 82.6522
lradius 53.9401
lwrist 6.85282
lhand -25.6465 -31.0843
lfingers 7.12502
lthumb 0.887177 -1.10643
rfemur -17.695 0.453352 11.9586
rtibia 20.3405
rfoot -2.4719 -4.11217
rtoes 22.6278
lfemur 21.5398 0.0140176 -27.9165
ltibia 29.5067
lfoot -16.223 -1.58113
ltoes -18.7018
441
root 41.1862 16.3657 -1.40101 653.859 96.2437 660.005
lowerback 4.86519 -0.36441 -10.3204
upperback 2.03163 -0.889857 -0.630913
thorax -0.457342 -0.468843 5.1788
lowerneck -22.7483 1.04877 0.865519
upperneck 26.3368 1.25344 0.55575
head 12.5319 0.816747 0.304092
rclavicle 3.56694e-015 4.12478e-015
rhumerus -52.1221 -8.72372 -76.4018
rradius 25.5576
rwrist 9.92826
rhand -8.09919 -32.4075
rfingers 7.12502
rthumb 17.8134 -61.6117
lclavicle 3.56694e-015 4.12478e-015
lhumerus -22.7482 -8.60618 83.1428
lradius 52.8779
lwrist 6.4444
lhand -25.6394 -30.8627
lfingers 7.12502
lthumb 0.894007 -0.884824
rfemur -17.038 1.26261 13.8953
rtibia 20.9794
rfoot -3.39306 -4.17399
rtoes 21.3305
lfemur 21.2643 0.22402 -25.9033
ltibia 31.531
lfoot -14.3939 -1.74293
ltoes -17.6747
442
root 41.3393 16.3754 -1.39498 657.351 95.2238 663.806
lowerback 4.99872 -0.328169 -9.26682
upperback 2.20516 -0.802479 -0.255949
thorax -0.380638 -0.433775 4.9774
lowerneck -22.8364 1.04401 0.865403
upperneck 26.2512 1.27851 0.429859
head 12.5162 0.807793 0.259863
rclavicle -1.24143e-016 1.73564e-014
rhumerus -50.9415 -8.24641 -76.9491
rradius 25.83
rwrist 9.98859
rhand -8.37613 -31.5235
rfingers 7.12502
rthumb 17.5469 -60.7516
lclavicle -1.24143e-016 1.73564e-014
lhumerus -23.5768 -7.15078 83.6322
lradius 51.8401
lwrist 5.5499
lhand -25.5231 -30.2419
lfingers 7.12502
lthumb 1.00636 -0.264538
rfemur -16.3664 1.44612 15.4197
rtibia 21.4801
rfoot -4.10714 -4.03858
rtoes 19.8329
lfemur 20.8068 0.442218 -24.3631
ltibia 33.709
lfoot -12.3362 -1.58095
ltoes -16.6669
443
root 41.483 16.391 -1.39849 658.669 95.0471 665.291
lowerback 5.49039 -0.268834 -8.89748
upperback 2.05321 -0.768937 -0.161985
thorax -0.82539 -0.392401 4.87443
lowerneck -22.7187 0.897865 0.617521
upperneck 26.1982 1.0689 0.738646
head 12.4674 0.733306 0.38225
rclavicle -8.49142e-016 -6.96368e-015
rhumerus -50.1252 -7.69154 -77.4578
rradius 26.0993
rwrist 9.66602
rhand -8.50005 -31.4327
rfingers 7.12502
rthumb 17.4276 -60.6714
lclavicle -8.49142e-016 -6.96368e-015
lhumerus -24.787 -6.18207 84.147
lradius 50.739
lwrist 4.9434
lhand -25.5227 -29.5276
lfingers 7.12502
lthumb 1.00678 0.449816
rfemur -15.8257 0.976541 15.8036
rtibia 21.9183
rfoot -4.52658 -3.48348
rtoes 19.8548
lfemur 19.9497 0.632631 -23.959
ltibia 36.2569
lfoot -10.5716 -1.32191
ltoes -15.8949
444
root 41.6293 16.3985 -1.36273 665.063 93.5363 672.192
lowerback 5.87656 -0.102745 -7.75659
upperback 2.25611 -0.509706 0.40243
thorax -0.878524 -0.266223 4.80995
lowerneck -22.5968 1.08679 0.996597
upperneck 26.0754 1.31975 0.340916
head 12.4003 0.827004 0.208012
rclavicle 1.47933e-014 -1.9133e-015
rhumerus -48.8579 -7.30912 -77.9288
rradius 26.3879
rwrist 9.46973
rhand -8.08459 -32.1164
rfingers 7.12502
rthumb 17.8274 -61.3193
lclavicle 1.47933e-014 -1.9133e-015
lhumerus -25.4953 -5.48328 84.5395
lradius 49.3626
lwrist 4.68975
lhand -25.4936 -28.9695
lfingers 7.12502
lthumb 1.0348 1.00777
rfemur -14.8166 2.25544 18.0633
rtibia 22.1152
rfoot -5.15379 -4.0234
rtoes 19.9684
lfemur 19.4605 1.13525 -21.4768
ltibia 38.7204
lfoot -8.9332 -1.26699
ltoes -16.3423
445
root 41.7667 16.4161 -1.37174 668.442 93.6113 675.712
lowerback 6.31911 -0.160386 -7.48061
upperback 2.10847 -0.616173 0.395738
thorax -1.2686 -0.29985 4.66013
lowerneck -22.4828 1.09424 1.24006
upperneck 26.2086 1.31105 0.141936
head 12.4342 0.823911 0.0904956
rclavicle 8.6415e-015 1.56294e-014
rhumerus -48.102 -6.88466 -78.4214
rradius 26.9597
rwrist 9.11222
rhand -7.71179 -32.628
rfingers 7.12502
rthumb 18.1861 -61.7978
lclavicle 8.6415e-015 1.56294e-014
lhumerus -26.5607 -4.9336 84.837
lradius 47.8936
lwrist 4.48068
lhand -25.3706 -28.4158
lfingers 7.12502
lthumb 1.15366 1.56087
rfemur -14.0077 1.55033 18.1807
rtibia 22.0003
rfoot -5.29947 -3.46975
rtoes 20.4618
lfemur 18.4469 1.20324 -21.347
ltibia 41.2308
lfoot -7.12104 -0.973838
ltoes -15.8601
446
root 41.9197 16.4294 -1.36002 683.539 92.8398 691.232
lowerback 6.62982 -0.204426 -6.40611
upperback 2.22338 -0.619951 0.761674
thorax -1.33326 -0.301464 4.4386
lowerneck -22.1501 1.18446 1.18922
upperneck 25.8539 1.36877 0.43155
head 12.2252 0.881937 0.213717
rclavicle -6.84487e-016 7.8023e-015
rhumerus -47.0613 -6.43705 -78.9205
rradius 27.4899
rwrist 8.53965
rhand -7.71389 -32.9641
rfingers 7.12502
rthumb 18.1841 -62.1342
lclavicle -6.84487e-016 7.8023e-015
lhumerus -27.407 -4.34669 85.1468
lradius 46.3027
lwrist 4.40791
lhand -25.229 -27.733
lfingers 7.12502
lthumb 1.29038 2.24288
rfemur -12.7079 1.40429 19.7626
rtibia 21.692
rfoot -5.62585 -3.34772
rtoes 20.0445
lfemur 17.8412 1.42318 -19.6591
ltibia 43.5912
lfoot -5.15999 -0.720247
ltoes -15.0705
447
root 42.0561 16.4511 -1.3623 685.645 92.8853 693.41
lowerback 6.77243 -0.204116 -6.24504
upperback 2.23884 -0.616557 0.808112
thorax -1.39877 -0.297413 4.3974
lowerneck -22.4359 1.18559 1.48583
upperneck 26.2075 1.38557 0.0348407
head 12.4281 0.86785 0.0209245
rclavicle -8.15134e-016 -8.59744e-015
rhumerus -45.8752 -6.11793 -79.3182
rradius 27.8437
rwrist 7.96305
rhand -8.0459 -33.1645
rfingers 7.12502
rthumb 17.8647 -62.3639
lclavicle -8.15134e-016 -8.59744e-015
lhumerus -28.04 -3.81513 85.5163
lradius 44.4826
lwrist 4.27109
lhand -24.9425 -26.9948
lfingers 7.12502
lthumb 1.5671 2.97914
rfemur -11.9262 0.944361 19.8512
rtibia 21.2072
rfoot -5.63185 -2.97018
rtoes 19.0623
lfemur 16.6357 1.59392 -19.4731
ltibia 46.0979
lfoot -3.34524 -0.37342
ltoes -14.7047
448
root 42.1849 16.4745 -1.34365 700.022 92.5348 707.876
lowerback 6.91142 -0.1392 -5.58769
upperback 2.2682 -0.488461 1.08141
thorax -1.46658 -0.231476 4.30216
lowerneck -22.5697 1.03291 1.1909
upperneck 26.3159 1.16013 0.411157
head 12.4914 0.791006 0.177114
rclavicle 6.49506e-015 -1.49089e-016
rhumerus -44.8151 -5.84349 -79.7055
rradius 28.4213
rwrist 7.21629
rhand -8.30393 -33.4877
rfingers 7.12502
rthumb 17.6164 -62.7096
lclavicle 6.49506e-015 -1.49089e-016
lhumerus -28.4966 -3.31462 85.8174
lradius 42.5303
lwrist 3.55923
lhand -24.3627 -26.1158
lfingers 7.12502
lthumb 2.12711 3.85335
rfemur -11.1442 1.37528 20.9343
rtibia 20.9081
rfoot -6.02111 -3.21193
rtoes 18.6254
lfemur 15.3805 1.82027 -18.2294
ltibia 48.4444
lfoot -1.55081 -0.182305
ltoes -13.9669
449
root 42.312 16.4996 -1.3323 711.861 92.5617 719.694
lowerback 6.82449 -0.112841 -5.04758
upperback 2.36023 -0.405974 1.21915
thorax -1.33701 -0.194634 4.13202
lowerneck -22.3621 0.97893 0.785599
upperneck 25.9017 1.02184 1.08044
head 12.2785 0.776373 0.470779
rclavicle 9.46945e-016 1.08835e-014
rhumerus -43.7732 -5.76234 -80.0621
rradius 29.3263
rwrist 6.45024
rhand -8.10992 -34.1505
rfingers 7.12502
rthumb 17.8031 -63.3555
lclavicle 9.46945e-016 1.08835e-014
lhumerus -28.8018 -3.00158 86.0195
lradius 40.5921
lwrist 2.53178
lhand -23.6208 -25.0923
lfingers 7.12502
lthumb 2.84354 4.86845
rfemur -10.4689 1.47888 21.6276
rtibia 20.6079
rfoot -6.36253 -3.3097
rtoes 18.5341
lfemur 13.9562 1.93614 -17.4045
ltibia 50.6869
lfoot 0.257689 0.137008
ltoes -11.7608
450
root 42.4394 16.5185 -1.32062 722.265 92.7133 730.195
lowerback 6.90458 -0.111689 -4.694
upperback 2.46838 -0.37524 1.42607
thorax -1.27465 -0.181211 4.14511
lowerneck -22.6278 0.94902 1.02787
upperneck 26.0526 0.999467 0.703153
head 12.3949 0.739038 0.286115
rclavicle -2.5875e-015 -1.33186e-014
rhumerus -42.6822 -5.5074 -80.3446
rradius 30.1873
rwrist 5.72668
rhand -7.93415 -34.8308
rfingers 7.12502
rthumb 17.9722 -64.0204
lclavicle -2.5875e-015 -1.33186e-014
lhumerus -29.0727 -2.72699 86.2899
lradius 38.4131
lwrist 1.56848
lhand -22.7108 -24.145
lfingers 7.12502
lthumb 3.7224 5.80227
rfemur -9.72009 1.5618 22.2849
rtibia 20.3929
rfoot -6.7619 -3.36634
rtoes 18.9756
lfemur 12.7177 2.02851 -16.6206
ltibia 52.731
lfoot 2.03785 0.495052
ltoes -6.48894
451
root 42.5605 16.5386 -1.3354 718.546 93.2342 726.401
lowerback 6.89005 -0.199757 -4.50069
upperback 2.5025 -0.480009 1.28647
thorax -1.22391 -0.234093 3.89797
lowerneck -22.6855 0.896174 1.10991
upperneck 26.0449 0.889128 0.710727
head 12.4038 0.699273 0.256641
rclavicle 4.16555e-015 -9.49197e-015
rhumerus -41.6232 -5.33597 -80.719
rradius 30.8909
rwrist 4.74456
rhand -8.63037 -34.4785
rfingers 7.12502
rthumb 17.3022 -63.7283
lclavicle 4.16555e-015 -9.49197e-015
lhumerus -29.2389 -2.70643 86.4847
lradius 36.0179
lwrist 0.380991
lhand -21.4836 -23.2739
lfingers 7.12502
lthumb 4.90744 6.64923
rfemur -9.0376 0.476426 21.8826
rtibia 20.0618
rfoot -6.95886 -2.65577
rtoes 18.9859
lfemur 11.288 1.90335 -17.0182
ltibia 54.6275
lfoot 2.50661 0.732541
ltoes -8.08798
452
root 42.68 16.5636 -1.32199 722.493 93.407 730.334
lowerback 6.84262 -0.176615 -4.41234
upperback 2.589 -0.434949 1.42569
thorax -1.11218 -0.215117 3.98836
lowerneck -22.7444 0.883961 1.24036
upperneck 26.1133 0.884219 0.512556
head 12.4445 0.683679 0.15928
rclavicle -6.38363e-015 -2.98177e-015
rhumerus -40.501 -4.76895 -81.1291
rradius 31.5624
rwrist 3.31848
rhand -9.76918 -33.1084
rfingers 7.12502
rthumb 16.2059 -62.451
lclavicle -6.38363e-015 -2.98177e-015
lhumerus -29.3244 -2.33423 86.6695
lradius 33.6432
lwrist -1.2378
lhand -20.11 -22.5822
lfingers 7.12502
lthumb 6.23359 7.30609
rfemur -8.32188 0.764009 22.2432
rtibia 19.6114
rfoot -7.28791 -2.94413
rtoes 19.5257
lfemur 9.79004 2.21174 -16.5304
ltibia 56.568
lfoot 1.85961 1.03656
ltoes -13.9978
453
root 42.7838 16.584 -1.31422 736.971 93.7087 744.847
lowerback 7.22888 -0.121573 -3.39522
upperback 2.48095 -0.30223 1.66265
thorax -1.45908 -0.135538 3.65259
lowerneck -22.3828 0.877839 1.2238
upperneck 25.7997 0.793617 0.818463
head 12.2469 0.68214 0.258573
rclavicle -1.04308e-014 7.60351e-015
rhumerus -39.7277 -4.1939 -81.5774
rradius 32.4
rwrist 1.74276
rhand -10.7585 -32.2225
rfingers 7.12502
rthumb 15.2532 -61.6402
lclavicle -1.04308e-014 7.60351e-015
lhumerus -29.6464 -2.14858 86.8038
lradius 31.3028
lwrist -3.07642
lhand -18.8164 -22.3634
lfingers 7.12502
lthumb 7.48235 7.48424
rfemur -7.80264 0.964235 23.4614
rtibia 19.4563
rfoot -7.79284 -3.1817
rtoes 20.5834
lfemur 8.29882 2.32239 -15.2428
ltibia 58.3491
lfoot 0.83728 1.86708
ltoes -8.14211
